<?xml version="1.0" encoding="utf-8" standalone="no"?>
<!DOCTYPE svg PUBLIC "-//W3C//DTD SVG 1.1//EN"
  "http://www.w3.org/Graphics/SVG/1.1/DTD/svg11.dtd">
<svg xmlns:xlink="http://www.w3.org/1999/xlink" width="516.8448pt" height="241.308pt" viewBox="0 0 516.8448 241.308" xmlns="http://www.w3.org/2000/svg" version="1.1">
 <metadata>
  <rdf:RDF xmlns:dc="http://purl.org/dc/elements/1.1/" xmlns:cc="http://creativecommons.org/ns#" xmlns:rdf="http://www.w3.org/1999/02/22-rdf-syntax-ns#">
   <cc:Work>
    <dc:type rdf:resource="http://purl.org/dc/dcmitype/StillImage"/>
    <dc:date>2026-08-14T04:41:17.744251</dc:date>
    <dc:format>image/svg+xml</dc:format>
    <dc:creator>
     <cc:Agent>
      <dc:title>Matplotlib v3.8.2, https://matplotlib.org/</dc:title>
     </cc:Agent>
    </dc:creator>
   </cc:Work>
  </rdf:RDF>
 </metadata>
 <defs>
  <style type="text/css">*{stroke-linejoin: round; stroke-linecap: butt}</style>
 </defs>
 <g id="figure_1">
  <g id="patch_1">
   <path d="M 0 241.308 
L 516.8448 241.308 
L 516.8448 0 
L 0 0 
z
" style="fill: #ffffff"/>
  </g>
  <g id="axes_1">
   <g id="patch_2">
    <path d="M 291.661056 52.5816 
L 299.081779 52.5816 
L 299.081779 46.04665 
L 291.661056 46.04665 
z
" clip-path="url(#p91cc53cced)" style="fill: #e8f1fa; stroke: #3b6ea8; stroke-linejoin: miter"/>
   </g>
   <g id="patch_3">
    <path d="M 342.678528 52.5816 
L 350.099251 52.5816 
L 350.099251 46.04665 
L 342.678528 46.04665 
z
" clip-path="url(#p91cc53cced)" style="fill: #e8f5f0; stroke-dasharray: 3.7,1.6; stroke-dashoffset: 0; stroke: #2e7d66; stroke-linejoin: miter"/>
   </g>
   <g id="patch_4">
    <path d="M 385.96608 52.5816 
L 393.386803 52.5816 
L 393.386803 46.04665 
L 385.96608 46.04665 
z
" clip-path="url(#p91cc53cced)" style="fill: #fff0de; stroke-dasharray: 6.4,1.6,1,1.6; stroke-dashoffset: 0; stroke: #b56a1b; stroke-linejoin: miter"/>
   </g>
   <g id="patch_5">
    <path d="M 453.061786 52.5816 
L 460.482509 52.5816 
L 460.482509 46.04665 
L 453.061786 46.04665 
z
" clip-path="url(#p91cc53cced)" style="fill: #f4f4f4; stroke: #4d4d4d; stroke-linejoin: miter"/>
   </g>
   <g id="line2d_1">
    <path d="M 12.765542 108.854784 
L 504.388454 108.854784 
" clip-path="url(#p91cc53cced)" style="fill: none; stroke: #c7c7c7; stroke-width: 0.75; stroke-linecap: square"/>
   </g>
   <g id="patch_6">
    <path d="M 65.340473 50.131426 
Q 69.039293 50.504931 71.347642 50.738027 
" clip-path="url(#p91cc53cced)" style="fill: none; stroke: #303030; stroke-width: 1.25; stroke-linecap: round"/>
    <path d="M 67.568818 48.346272 
L 71.347642 50.738027 
L 67.166944 52.326033 
z
" clip-path="url(#p91cc53cced)" style="fill: #303030; stroke: #303030; stroke-width: 1.25; stroke-linecap: round"/>
   </g>
   <g id="patch_7">
    <path d="M 64.113046 68.336149 
Q 69.039557 76.804822 73.460097 84.40373 
" clip-path="url(#p91cc53cced)" style="fill: none; stroke: #777777; stroke-width: 0.9; stroke-linecap: round"/>
    <path d="M 73.177502 79.940532 
L 73.460097 84.40373 
L 69.719981 81.951888 
z
" clip-path="url(#p91cc53cced)" style="fill: #777777; stroke: #777777; stroke-width: 0.9; stroke-linecap: round"/>
   </g>
   <g id="patch_8">
    <path d="M 135.852742 51.129389 
Q 141.390265 51.129389 145.530244 51.129389 
" clip-path="url(#p91cc53cced)" style="fill: none; stroke: #303030; stroke-width: 1.25; stroke-linecap: round"/>
    <path d="M 141.530244 49.129389 
L 145.530244 51.129389 
L 141.530244 53.129389 
z
" clip-path="url(#p91cc53cced)" style="fill: #303030; stroke: #303030; stroke-width: 1.25; stroke-linecap: round"/>
   </g>
   <g id="patch_9">
    <path d="M 210.059974 51.129389 
Q 215.597497 51.129389 219.737476 51.129389 
" clip-path="url(#p91cc53cced)" style="fill: none; stroke: #303030; stroke-width: 1.25; stroke-linecap: round"/>
    <path d="M 215.737476 49.129389 
L 219.737476 51.129389 
L 215.737476 53.129389 
z
" clip-path="url(#p91cc53cced)" style="fill: #303030; stroke: #303030; stroke-width: 1.25; stroke-linecap: round"/>
   </g>
   <g id="patch_10">
    <path d="M 65.352551 173.841235 
Q 69.037211 173.841235 71.324329 173.841235 
" clip-path="url(#p91cc53cced)" style="fill: none; stroke: #303030; stroke-width: 1.25; stroke-linecap: round"/>
    <path d="M 67.324329 171.841235 
L 71.324329 173.841235 
L 67.324329 175.841235 
z
" clip-path="url(#p91cc53cced)" style="fill: #303030; stroke: #303030; stroke-width: 1.25; stroke-linecap: round"/>
   </g>
   <g id="patch_11">
    <path d="M 104.287795 102.276402 
Q 104.287795 130.272497 104.287795 157.26236 
" clip-path="url(#p91cc53cced)" style="fill: none; stroke: #777777; stroke-width: 0.9; stroke-linecap: round"/>
    <path d="M 106.287795 153.26236 
L 104.287795 157.26236 
L 102.287795 153.26236 
z
" clip-path="url(#p91cc53cced)" style="fill: #777777; stroke: #777777; stroke-width: 0.9; stroke-linecap: round"/>
   </g>
   <g id="patch_12">
    <path d="M 167.254118 67.396764 
Q 171.585669 94.911633 177.693861 121.055056 
" clip-path="url(#p91cc53cced)" style="fill: none; stroke: #777777; stroke-width: 0.9; stroke-linecap: round"/>
    <path d="M 178.731353 116.704928 
L 177.693861 121.055056 
L 174.836254 117.614985 
z
" clip-path="url(#p91cc53cced)" style="fill: #777777; stroke: #777777; stroke-width: 0.9; stroke-linecap: round"/>
   </g>
   <g id="patch_13">
    <path d="M 189.591867 67.370686 
Q 179.469267 114.831781 180.282899 162.347167 
" clip-path="url(#p91cc53cced)" style="fill: none; stroke: #777777; stroke-width: 0.9; stroke-linecap: round"/>
    <path d="M 182.214122 158.313511 
L 180.282899 162.347167 
L 178.214708 158.381995 
z
" clip-path="url(#p91cc53cced)" style="fill: #777777; stroke: #777777; stroke-width: 0.9; stroke-linecap: round"/>
   </g>
   <g id="patch_14">
    <path d="M 134.187789 164.164436 
Q 139.292375 150.261559 147.358093 139.058966 
" clip-path="url(#p91cc53cced)" style="fill: none; stroke: #777777; stroke-width: 0.9; stroke-linecap: round"/>
    <path d="M 143.397824 141.136529 
L 147.358093 139.058966 
L 146.643981 143.473719 
z
" clip-path="url(#p91cc53cced)" style="fill: #777777; stroke: #777777; stroke-width: 0.9; stroke-linecap: round"/>
   </g>
   <g id="patch_15">
    <path d="M 135.753527 175.57131 
Q 141.305686 177.0998 145.977057 177.974024 
" clip-path="url(#p91cc53cced)" style="fill: none; stroke: #777777; stroke-width: 0.9; stroke-linecap: round"/>
    <path d="M 142.413219 175.272348 
L 145.977057 177.974024 
L 141.677413 179.204089 
z
" clip-path="url(#p91cc53cced)" style="fill: #777777; stroke: #777777; stroke-width: 0.9; stroke-linecap: round"/>
   </g>
   <g id="patch_16">
    <path d="M 249.629868 66.904798 
Q 215.748505 111.147132 197.003817 162.55559 
" clip-path="url(#p91cc53cced)" style="fill: none; stroke: #777777; stroke-width: 0.9; stroke-linecap: round"/>
    <path d="M 200.253053 159.482731 
L 197.003817 162.55559 
L 196.495071 158.112485 
z
" clip-path="url(#p91cc53cced)" style="fill: #777777; stroke: #777777; stroke-width: 0.9; stroke-linecap: round"/>
   </g>
   <g id="patch_17">
    <path d="M 213.772299 180.013133 
Q 218.999875 180.013133 222.829909 180.013133 
" clip-path="url(#p91cc53cced)" style="fill: none; stroke: #303030; stroke-width: 1.25; stroke-linecap: round"/>
    <path d="M 218.829909 178.013133 
L 222.829909 180.013133 
L 218.829909 182.013133 
z
" clip-path="url(#p91cc53cced)" style="fill: #303030; stroke: #303030; stroke-width: 1.25; stroke-linecap: round"/>
   </g>
   <g id="patch_18">
    <path d="M 283.645038 180.013133 
Q 288.258578 180.013133 291.474576 180.013133 
" clip-path="url(#p91cc53cced)" style="fill: none; stroke: #303030; stroke-width: 1.25; stroke-linecap: round"/>
    <path d="M 287.474576 178.013133 
L 291.474576 180.013133 
L 287.474576 182.013133 
z
" clip-path="url(#p91cc53cced)" style="fill: #303030; stroke: #303030; stroke-width: 1.25; stroke-linecap: round"/>
   </g>
   <g id="patch_19">
    <path d="M 340.657111 177.929099 
Q 347.661468 167.74766 356.669809 161.504182 
" clip-path="url(#p91cc53cced)" style="fill: none; stroke: #303030; stroke-width: 1.25; stroke-linecap: round"/>
    <path d="M 352.24295 162.13894 
L 356.669809 161.504182 
L 354.521501 165.426524 
z
" clip-path="url(#p91cc53cced)" style="fill: #303030; stroke: #303030; stroke-width: 1.25; stroke-linecap: round"/>
   </g>
   <g id="patch_20">
    <path d="M 210.04918 137.730925 
Q 280.529318 143.250355 349.61618 148.660676 
" clip-path="url(#p91cc53cced)" style="fill: none; stroke: #303030; stroke-width: 1.25; stroke-linecap: round"/>
    <path d="M 345.784535 146.354489 
L 349.61618 148.660676 
L 345.472244 150.34228 
z
" clip-path="url(#p91cc53cced)" style="fill: #303030; stroke: #303030; stroke-width: 1.25; stroke-linecap: round"/>
   </g>
   <g id="patch_21">
    <path d="M 370.222935 150.968909 
Q 373.753961 150.968909 375.887445 150.968909 
" clip-path="url(#p91cc53cced)" style="fill: none; stroke: #303030; stroke-width: 1.25; stroke-linecap: round"/>
    <path d="M 371.887445 148.968909 
L 375.887445 150.968909 
L 371.887445 152.968909 
z
" clip-path="url(#p91cc53cced)" style="fill: #303030; stroke: #303030; stroke-width: 1.25; stroke-linecap: round"/>
   </g>
   <g id="patch_22">
    <path d="M 433.608581 150.968909 
Q 436.828126 150.968909 438.650129 150.968909 
" clip-path="url(#p91cc53cced)" style="fill: none; stroke: #303030; stroke-width: 1.25; stroke-linecap: round"/>
    <path d="M 434.650129 148.968909 
L 438.650129 150.968909 
L 434.650129 152.968909 
z
" clip-path="url(#p91cc53cced)" style="fill: #303030; stroke: #303030; stroke-width: 1.25; stroke-linecap: round"/>
   </g>
   <g id="patch_23">
    <path d="M 470.405265 150.968909 
Q 473.315996 150.968909 474.829184 150.968909 
" clip-path="url(#p91cc53cced)" style="fill: none; stroke: #303030; stroke-width: 1.25; stroke-linecap: round"/>
    <path d="M 470.829184 148.968909 
L 474.829184 150.968909 
L 470.829184 152.968909 
z
" clip-path="url(#p91cc53cced)" style="fill: #303030; stroke: #303030; stroke-width: 1.25; stroke-linecap: round"/>
   </g>
   <g id="text_1">
    <text style="fill: #3b6ea8; font: 700 9.2px 'DejaVu Sans', sans-serif; text-anchor: start" x="13.383936" y="18.454637" transform="rotate(-0 13.383936 18.454637)">Record-level encoding  (computed once)</text>
   </g>
   <g id="text_2">
    <text style="fill: #b56a1b; font: 700 9.2px 'DejaVu Sans', sans-serif; text-anchor: start" x="13.383936" y="118.65721" transform="rotate(-0 13.383936 118.65721)">Per-time query</text>
   </g>
   <g id="patch_24">
    <path d="M 15.517394 77.123969 
L 62.26795 77.123969 
Q 63.350139 77.123969 63.350139 75.853284 
L 63.350139 40.2015 
Q 63.350139 38.930815 62.26795 38.930815 
L 15.517394 38.930815 
Q 14.435205 38.930815 14.435205 40.2015 
L 14.435205 75.853284 
Q 14.435205 77.123969 15.517394 77.123969 
z
" clip-path="url(#p91cc53cced)" style="fill: #f4f4f4; stroke: #4d4d4d; stroke-width: 1.25; stroke-linejoin: miter"/>
   </g>
   <g id="patch_25">
    <path d="M 75.81077 65.50628 
L 132.76482 65.50628 
Q 133.847009 65.50628 133.847009 64.235595 
L 133.847009 38.023183 
Q 133.847009 36.752498 132.76482 36.752498 
L 75.81077 36.752498 
Q 74.728581 36.752498 74.728581 38.023183 
L 74.728581 64.235595 
Q 74.728581 65.50628 75.81077 65.50628 
z
" clip-path="url(#p91cc53cced)" style="fill: #e8f1fa; stroke: #3b6ea8; stroke-width: 1.35; stroke-linejoin: miter"/>
   </g>
   <g id="patch_26">
    <path d="M 75.81077 100.359348 
L 132.76482 100.359348 
Q 133.847009 100.359348 133.847009 99.088664 
L 133.847009 75.780674 
Q 133.847009 74.509989 132.76482 74.509989 
L 75.81077 74.509989 
Q 74.728581 74.509989 74.728581 75.780674 
L 74.728581 99.088664 
Q 74.728581 100.359348 75.81077 100.359348 
z
" clip-path="url(#p91cc53cced)" style="fill: #e8f5f0; stroke-dasharray: 4.625,2; stroke-dashoffset: 0; stroke: #2e7d66; stroke-width: 1.25; stroke-linejoin: miter"/>
   </g>
   <g id="patch_27">
    <path d="M 150.018002 65.50628 
L 206.972052 65.50628 
Q 208.054241 65.50628 208.054241 64.235595 
L 208.054241 38.023183 
Q 208.054241 36.752498 206.972052 36.752498 
L 150.018002 36.752498 
Q 148.935813 36.752498 148.935813 38.023183 
L 148.935813 64.235595 
Q 148.935813 65.50628 150.018002 65.50628 
z
" clip-path="url(#p91cc53cced)" style="fill: #e8f1fa; stroke: #3b6ea8; stroke-width: 1.35; stroke-linejoin: miter"/>
   </g>
   <g id="patch_28">
    <path d="M 224.225234 65.50628 
L 278.087316 65.50628 
Q 279.169505 65.50628 279.169505 64.235595 
L 279.169505 38.023183 
Q 279.169505 36.752498 278.087316 36.752498 
L 224.225234 36.752498 
Q 223.143045 36.752498 223.143045 38.023183 
L 223.143045 64.235595 
Q 223.143045 65.50628 224.225234 65.50628 
z
" clip-path="url(#p91cc53cced)" style="fill: #e8f1fa; stroke: #3b6ea8; stroke-width: 1.35; stroke-linejoin: miter"/>
   </g>
   <g id="patch_29">
    <path d="M 15.517394 187.49202 
L 62.26795 187.49202 
Q 63.350139 187.49202 63.350139 186.221336 
L 63.350139 161.461135 
Q 63.350139 160.19045 62.26795 160.19045 
L 15.517394 160.19045 
Q 14.435205 160.19045 14.435205 161.461135 
L 14.435205 186.221336 
Q 14.435205 187.49202 15.517394 187.49202 
z
" clip-path="url(#p91cc53cced)" style="fill: #f4f4f4; stroke: #4d4d4d; stroke-width: 1.25; stroke-linejoin: miter"/>
   </g>
   <g id="patch_30">
    <path d="M 75.81077 187.49202 
L 132.76482 187.49202 
Q 133.847009 187.49202 133.847009 186.221336 
L 133.847009 161.461135 
Q 133.847009 160.19045 132.76482 160.19045 
L 75.81077 160.19045 
Q 74.728581 160.19045 74.728581 161.461135 
L 74.728581 186.221336 
Q 74.728581 187.49202 75.81077 187.49202 
z
" clip-path="url(#p91cc53cced)" style="fill: #e8f5f0; stroke-dasharray: 4.625,2; stroke-dashoffset: 0; stroke: #2e7d66; stroke-width: 1.25; stroke-linejoin: miter"/>
   </g>
   <g id="patch_31">
    <path d="M 150.018002 151.18674 
L 206.972052 151.18674 
Q 208.054241 151.18674 208.054241 149.916056 
L 208.054241 125.155855 
Q 208.054241 123.88517 206.972052 123.88517 
L 150.018002 123.88517 
Q 148.935813 123.88517 148.935813 125.155855 
L 148.935813 149.916056 
Q 148.935813 151.18674 150.018002 151.18674 
z
" clip-path="url(#p91cc53cced)" style="fill: #e8f1fa; stroke: #3b6ea8; stroke-width: 1.35; stroke-linejoin: miter"/>
   </g>
   <g id="patch_32">
    <path d="M 150.018002 194.753076 
L 210.682414 194.753076 
Q 211.764603 194.753076 211.764603 193.482392 
L 211.764603 166.543874 
Q 211.764603 165.273189 210.682414 165.273189 
L 150.018002 165.273189 
Q 148.935813 165.273189 148.935813 166.543874 
L 148.935813 193.482392 
Q 148.935813 194.753076 150.018002 194.753076 
z
" clip-path="url(#p91cc53cced)" style="fill: #e8f1fa; stroke: #3b6ea8; stroke-width: 1.35; stroke-linejoin: miter"/>
   </g>
   <g id="patch_33">
    <path d="M 227.317202 194.753076 
L 280.560891 194.753076 
Q 281.64308 194.753076 281.64308 193.482392 
L 281.64308 166.543874 
Q 281.64308 165.273189 280.560891 165.273189 
L 227.317202 165.273189 
Q 226.235013 165.273189 226.235013 166.543874 
L 226.235013 193.482392 
Q 226.235013 194.753076 227.317202 194.753076 
z
" clip-path="url(#p91cc53cced)" style="fill: #fff0de; stroke-dasharray: 8,2,1.25,2; stroke-dashoffset: 0; stroke: #b56a1b; stroke-width: 1.25; stroke-linejoin: miter"/>
   </g>
   <g id="patch_34">
    <path d="M 295.958892 194.753076 
L 338.689889 194.753076 
Q 339.772078 194.753076 339.772078 193.482392 
L 339.772078 166.543874 
Q 339.772078 165.273189 338.689889 165.273189 
L 295.958892 165.273189 
Q 294.876703 165.273189 294.876703 166.543874 
L 294.876703 193.482392 
Q 294.876703 194.753076 295.958892 194.753076 
z
" clip-path="url(#p91cc53cced)" style="fill: #e8f5f0; stroke-dasharray: 4.625,2; stroke-dashoffset: 0; stroke: #2e7d66; stroke-width: 1.25; stroke-linejoin: miter"/>
   </g>
   <g id="patch_35">
    <path d="M 354.08789 159.900008 
L 367.135995 159.900008 
Q 368.218184 159.900008 368.218184 158.629323 
L 368.218184 143.308495 
Q 368.218184 142.03781 367.135995 142.03781 
L 354.08789 142.03781 
Q 353.005701 142.03781 353.005701 143.308495 
L 353.005701 158.629323 
Q 353.005701 159.900008 354.08789 159.900008 
z
" clip-path="url(#p91cc53cced)" style="fill: #f4f4f4; stroke: #4d4d4d; stroke-width: 1.25; stroke-linejoin: miter"/>
   </g>
   <g id="patch_36">
    <path d="M 380.369618 164.982747 
L 430.521339 164.982747 
Q 431.603528 164.982747 431.603528 163.712062 
L 431.603528 138.225756 
Q 431.603528 136.955071 430.521339 136.955071 
L 380.369618 136.955071 
Q 379.287429 136.955071 379.287429 138.225756 
L 379.287429 163.712062 
Q 379.287429 164.982747 380.369618 164.982747 
z
" clip-path="url(#p91cc53cced)" style="fill: #e8f1fa; stroke: #3b6ea8; stroke-width: 1.35; stroke-linejoin: miter"/>
   </g>
   <g id="patch_37">
    <path d="M 443.136568 164.982747 
L 467.315758 164.982747 
Q 468.397947 164.982747 468.397947 163.712062 
L 468.397947 138.225756 
Q 468.397947 136.955071 467.315758 136.955071 
L 443.136568 136.955071 
Q 442.05438 136.955071 442.05438 138.225756 
L 442.05438 163.712062 
Q 442.05438 164.982747 443.136568 164.982747 
z
" clip-path="url(#p91cc53cced)" style="fill: #e8f5f0; stroke-dasharray: 4.625,2; stroke-dashoffset: 0; stroke: #2e7d66; stroke-width: 1.25; stroke-linejoin: miter"/>
   </g>
   <g id="patch_38">
    <path d="M 479.312594 164.982747 
L 502.254996 164.982747 
Q 503.337185 164.982747 503.337185 163.712062 
L 503.337185 138.225756 
Q 503.337185 136.955071 502.254996 136.955071 
L 479.312594 136.955071 
Q 478.230405 136.955071 478.230405 138.225756 
L 478.230405 163.712062 
Q 478.230405 164.982747 479.312594 164.982747 
z
" clip-path="url(#p91cc53cced)" style="fill: #f4f4f4; stroke: #4d4d4d; stroke-width: 1.25; stroke-linejoin: miter"/>
   </g>
   <g id="text_3">
    <text style="font: 6.8px 'DejaVu Sans', sans-serif; text-anchor: start" x="301.555354" y="51.1905" transform="rotate(-0 301.555354 51.1905)">learned</text>
   </g>
   <g id="text_4">
    <text style="font: 6.8px 'DejaVu Sans', sans-serif; text-anchor: start" x="352.572826" y="51.1905" transform="rotate(-0 352.572826 51.1905)">fixed</text>
   </g>
   <g id="text_5">
    <text style="font: 6.8px 'DejaVu Sans', sans-serif; text-anchor: start" x="395.860378" y="51.1905" transform="rotate(-0 395.860378 51.1905)">transport</text>
   </g>
   <g id="text_6">
    <text style="font: 6.8px 'DejaVu Sans', sans-serif; text-anchor: start" x="462.956083" y="51.1905" transform="rotate(-0 462.956083 51.1905)">data</text>
   </g>
   <g id="text_7">
    <text style="fill: #555555; font: italic 6.7px 'DejaVu Sans', sans-serif; text-anchor: end" x="501.91488" y="87.105133" transform="rotate(-0 501.91488 87.105133)">No target wavefield or background solve</text>
   </g>
   <g id="text_8">
    <text style="fill: #222222; font: 7px 'DejaVu Sans', sans-serif" transform="translate(14.860797 52.378693)">Record inputs</text>
    <!-- $v(x,z)$ -->
    <g style="fill: #222222" transform="translate(28.357672 59.951216)">
     <text>
      <tspan style="font: oblique 7px 'DejaVu Sans'" x="0 6.873535 14.60498" y="-0.6875">vxz</tspan>
      <tspan style="font: 7px 'DejaVu Sans'" x="4.142578 11.016113 18.279297" y="-0.6875">(,)</tspan>
     </text>
    </g>
    <!-- $q=(x_s,z_s,f_0,t_0,A)$ -->
    <g style="fill: #222222" transform="translate(7.497672 67.524997)">
     <text>
      <tspan style="font: oblique 7px 'DejaVu Sans'" x="0 15.76709 26.242822 36.250293 45.612451 55.254883" y="-0.6875">qxzftA</tspan>
      <tspan style="font: 7px 'DejaVu Sans'" x="5.807129 13.036133 22.653955 32.661426 42.023584 51.666016 60.043457" y="-0.6875">=(,,,,)</tspan>
      <tspan style="font: oblique 4.9px 'DejaVu Sans'" x="19.909668 29.917139" y="0.4609375">ss</tspan>
      <tspan style="font: 4.9px 'DejaVu Sans'" x="38.714648 48.35708" y="0.4609375">00</tspan>
     </text>
    </g>
   </g>
   <g id="text_9">
    <text style="fill: #222222; font: 7.2px 'DejaVu Sans', sans-serif" transform="translate(79.754358 49.221698)">Complex FNO</text>
    <text style="fill: #222222; font: 7.2px 'DejaVu Sans', sans-serif" transform="translate(72.37042 57.010579)">+ source encoder</text>
   </g>
   <g id="text_10">
    <text style="fill: #222222; font: 7.2px 'DejaVu Sans', sans-serif" transform="translate(74.996733 85.159019)">Travel geometry</text>
    <!-- $\tau_q(x,z),\;\nabla\tau_q$ -->
    <g style="fill: #222222" transform="translate(82.651795 92.949194)">
     <text>
      <tspan style="font: oblique 7.2px 'DejaVu Sans'" x="0 10.606201 18.61377 35.776485" y="-0.6875">τxzτ</tspan>
      <tspan style="font: oblique 5.04px 'DejaVu Sans'" x="4.364868 40.141353" y="0.4609375">qq</tspan>
      <tspan style="font: 7.2px 'DejaVu Sans'" x="7.77771 14.896729 22.419312 25.247803 30.926631" y="-0.6875">(,),∇</tspan>
     </text>
    </g>
   </g>
   <g id="text_11">
    <text style="fill: #222222; font: 7.2px 'DejaVu Sans', sans-serif" transform="translate(142.91634 49.213739)">Shared record state</text>
    <!-- $S_\theta(v,q)$ -->
    <g style="fill: #222222" transform="translate(165.499027 57.003914)">
     <text>
      <tspan style="font: oblique 7.2px 'DejaVu Sans'" x="0 10.726917 18.734485" y="-0.6875">Svq</tspan>
      <tspan style="font: oblique 5.04px 'DejaVu Sans'" x="4.602051" y="0.4609375">θ</tspan>
      <tspan style="font: 7.2px 'DejaVu Sans'" x="7.898425 15.017444 23.336536" y="-0.6875">(,)</tspan>
     </text>
    </g>
   </g>
   <g id="text_12">
    <text style="fill: #222222; font: 7.2px 'DejaVu Sans', sans-serif" transform="translate(220.833025 49.221698)">Rank-32 anchors</text>
    <!-- $L_m(x,z)$ -->
    <g style="fill: #222222" transform="translate(237.908275 57.010579)">
     <text>
      <tspan style="font: oblique 7.2px 'DejaVu Sans'" x="0 12.002747 20.010315" y="-0.6875">Lxz</tspan>
      <tspan style="font: oblique 5.04px 'DejaVu Sans'" x="4.039185" y="0.4609375">m</tspan>
      <tspan style="font: 7.2px 'DejaVu Sans'" x="9.174255 16.293274 23.815857" y="-0.6875">(,)</tspan>
     </text>
    </g>
   </g>
   <g id="text_13">
    <text style="fill: #222222; font: 7.3px 'DejaVu Sans', sans-serif" transform="translate(18.209149 171.907049)">Saved time</text>
    <!-- $t$ -->
    <g style="fill: #222222" transform="translate(37.432672 179.804109)">
     <text>
      <tspan style="font: oblique 7.3px 'DejaVu Sans'" x="0" y="-0.078125">t</tspan>
     </text>
    </g>
   </g>
   <g id="text_14">
    <text style="fill: #222222; font: 7.2px 'DejaVu Sans', sans-serif" transform="translate(77.33167 171.925585)">Query features</text>
    <!-- $t$, phase, index -->
    <g style="fill: #222222" transform="translate(77.503795 179.71576)">
     <text>
      <tspan style="font: oblique 7.2px 'DejaVu Sans'" x="0" y="-0.6875">t</tspan>
      <tspan style="font: 7.2px 'DejaVu Sans'" x="2.842651 5.147217 7.451782 12.053833 16.648804 21.091553 24.868774 29.329224 31.633789 33.938354 35.952637 40.547607 45.149658 49.610107" y="-0.6875">, phase, index</tspan>
     </text>
    </g>
   </g>
   <g id="text_15">
    <text style="fill: #222222; font: 7.2px 'DejaVu Sans', sans-serif" transform="translate(152.545215 135.628265)">Global MIONet</text>
    <text style="fill: #222222; font: 7.2px 'DejaVu Sans', sans-serif" transform="translate(157.624027 143.417146)">coarse field</text>
   </g>
   <g id="text_16">
    <text style="fill: #222222; font: 7.2px 'DejaVu Sans', sans-serif" transform="translate(152.928333 178.105442)">Local synthesis</text>
    <!-- $\ell_\theta(x,t)+b_\theta(x,t)$ -->
    <g style="fill: #222222" transform="translate(152.450208 185.894323)">
     <text>
      <tspan style="font: oblique 7.2px 'DejaVu Sans'" x="0 9.119739 17.127307 31.698108 42.425024 50.432593" y="-0.6875">ℓxtbxt</tspan>
      <tspan style="font: oblique 5.04px 'DejaVu Sans'" x="2.994873 36.300159" y="0.4609375">θθ</tspan>
      <tspan style="font: 7.2px 'DejaVu Sans'" x="6.291248 13.410266 19.969958 24.210925 39.596533 46.715552 53.275244" y="-0.6875">(,)+(,)</tspan>
     </text>
    </g>
   </g>
   <g id="text_17">
    <text style="fill: #222222; font: 7.1px 'DejaVu Sans', sans-serif" transform="translate(219.327101 177.769089)">Characteristic warp</text>
    <!-- along $\nabla\tau_q$ -->
    <g style="fill: #222222" transform="translate(236.757046 185.451067)">
     <text>
      <tspan style="font: 7.1px 'DejaVu Sans'" x="0 4.36615 6.345703 10.704895 15.220642 19.743347 22.008179" y="-0.6875">along ∇</tspan>
      <tspan style="font: oblique 7.1px 'DejaVu Sans'" x="26.774414" y="-0.6875">τ</tspan>
      <tspan style="font: oblique 4.97px 'DejaVu Sans'" x="31.064026" y="0.4609375">q</tspan>
     </text>
    </g>
   </g>
   <g id="text_18">
    <text style="fill: #222222; font: 7.1px 'DejaVu Sans', sans-serif" transform="translate(296.656734 177.769089)">Arrival gate</text>
    <!-- $\times\,c_q(x,t)$ -->
    <g style="fill: #222222" transform="translate(302.05939 185.451067)">
     <text>
      <tspan style="font: 7.1px 'DejaVu Sans'" x="0 14.401421 21.397698 27.844292" y="-0.6875">×(,)</tspan>
      <tspan style="font: oblique 7.1px 'DejaVu Sans'" x="7.126763 17.181145 25.050652" y="-0.6875">cxt</tspan>
      <tspan style="font: oblique 4.97px 'DejaVu Sans'" x="11.044121" y="0.4609375">q</tspan>
     </text>
    </g>
   </g>
   <g id="text_19">
    <text style="fill: #222222; font: 13px 'DejaVu Sans', sans-serif; text-anchor: middle" x="360.611942" y="154.556096" transform="rotate(-0 360.611942 154.556096)">+</text>
   </g>
   <g id="text_20">
    <text style="fill: #222222; font: 7.1px 'DejaVu Sans', sans-serif" transform="translate(374.492807 149.087714)">Complex spectral</text>
    <!-- refiner $\times 12$ -->
    <g style="fill: #222222" transform="translate(385.032978 156.768416)">
     <text>
      <tspan style="font: 7.1px 'DejaVu Sans'" x="0 2.929321 7.312866 9.821228 11.800781 16.316528 20.700073 23.629395 25.894226 31.864197 36.397339" y="-0.6875">refiner ×12</tspan>
     </text>
    </g>
   </g>
   <g id="text_21">
    <!-- $\times\,g_{\mathrm{fs}}(z)$ -->
    <g style="fill: #222222" transform="translate(442.696163 152.893909)">
     <text>
      <tspan style="font: 7px 'DejaVu Sans'" x="0 15.914427 22.3197" y="-0.6875">×()</tspan>
      <tspan style="font: oblique 7px 'DejaVu Sans'" x="7.001732 18.645384" y="-0.6875">gz</tspan>
      <tspan style="font: 4.9px 'DejaVu Sans'" x="11.445091 13.17014" y="0.4609375">fs</tspan>
     </text>
    </g>
   </g>
   <g id="text_22">
    <text style="fill: #222222; font: 7.1px 'DejaVu Sans', sans-serif" transform="translate(478.452537 148.834915)">Output</text>
    <!-- $\widehat p$ -->
    <g style="fill: #222222" transform="translate(488.511795 157.006793)">
     <text>
      <tspan style="font: 4.282287px 'STIXSizeTwoSym'" x="4.941406" y="-2.890625">̂</tspan>
      <tspan style="font: oblique 7.1px 'DejaVu Sans'" x="0" y="-0.3312499999999998">p</tspan>
     </text>
    </g>
   </g>
  </g>
 </g>
 <defs>
  <clipPath id="p91cc53cced">
   <rect x="7.2" y="7.2" width="502.4448" height="226.908"/>
  </clipPath>
 </defs>
</svg>
